<svg
xmlns="http://www.w3.org/2000/svg"
viewBox="0 0 256 256"
height="256"
width="256"
xml:space="preserve"
version="1.1">
  <path
  xmlns="http://www.w3.org/2000/svg"
  style="
  fill: #33b;
  fill-rule: nonzero;
  stroke: none;
  fill-opacity: 1"
  d="
M 69.90614079 198.588835
C 67.04180513 199.5216825 64.53551142 201.2541135 62.74530163 203.5196002
L 75.75415944 215.6466174
L 59.16488205 215.7798813
C 59.28422937 216.7127288 59.40357669 217.7788402 59.64227133 218.7116877
C 61.79052308 227.5071067 69.90614079 232.5711359 77.78306387 230.1723852
C 85.65998695 227.7736346 90.19518508 218.7116877 88.04693333 209.9162686
C 85.89868159 201.3873774 77.78306387 196.1900843 69.90614079 198.588835
M 186.5289995 198.588835
C 183.6646639 199.5216825 181.1583702 201.2541135 179.3681604 203.5196002
L 192.3770182 215.6466174
L 175.7877408 215.7798813
C 175.9070881 216.7127288 176.0264354 217.7788402 176.2651301 218.7116877
C 178.4133818 227.5071067 186.5289995 232.5711359 194.4059226 230.1723852
C 202.2828457 227.7736346 206.8180438 218.7116877 204.6697921 209.9162686
C 202.5215403 201.3873774 194.4059226 196.1900843 186.5289995 198.588835
M 231.7724942 175.1087975
C 226.7599068 174.0426861 221.627972 173.2431026 216.37669 172.8433108
C 216.37669 172.8433108 216.2573427 172.8433108 216.2573427 172.8433108
C 211.1254079 172.443519 205.9934732 172.3102551 200.7421911 172.443519
C 197.6391608 172.443519 194.5361305 172.5767829 191.4331002 172.5767829
C 185.4657343 172.7100469 179.4983683 173.1098386 173.5310023 174.0426861
C 173.5310023 174.0426861 173.411655 174.0426861 173.411655 174.0426861
C 167.444289 174.8422697 161.5962704 176.1749089 155.7482517 177.6408121
C 153.8386946 178.1738678 151.8097902 178.7069235 149.9002331 179.2399792
C 147.1552448 180.1728267 144.2909091 181.1056741 141.5459207 182.0385216
C 138.4428904 183.104633 135.1011655 183.5044248 131.7594406 183.5044248
C 128.5370629 183.5044248 125.195338 183.104633 121.9729604 182.0385216
C 119.227972 181.1056741 116.3636364 180.1728267 113.618648 179.2399792
C 111.7090909 178.7069235 109.6801865 178.1738678 107.7706294 177.6408121
C 101.9226107 176.041645 96.07459207 174.8422697 90.10722611 174.0426861
C 89.98787879 174.0426861 89.98787879 174.0426861 89.86853147 174.0426861
C 83.9011655 173.2431026 77.93379953 172.7100469 71.96643357 172.5767829
C 68.86340326 172.443519 65.76037296 172.443519 62.65734266 172.443519
C 57.52540793 172.3102551 52.27412587 172.443519 47.14219114 172.8433108
C 47.14219114 172.8433108 47.02284382 172.8433108 47.02284382 172.8433108
C 41.89090909 173.2431026 36.75897436 174.0426861 31.62703963 175.1087975
C 30.07552448 175.5085893 28.64335664 175.7751171 27.09184149 176.041645
C 27.68857809 172.443519 28.404662 168.845393 28.76270396 167.9125455
C 32.1044289 157.2514315 34.96876457 149.5221239 39.14592075 138.8610099
C 43.08438228 128.7329516 47.26153846 118.0718376 54.06433566 109.9427382
C 54.18368298 109.8094742 54.3030303 109.4096825 54.18368298 109.1431546
C 55.97389277 106.61114 57.76410256 104.0791255 59.79300699 101.8136387
C 60.38974359 101.280583 60.86713287 100.7475273 61.46386946 100.2144716
C 61.58321678 100.3477356 61.7025641 100.4809995 61.82191142 100.7475273
C 67.90862471 107.5439875 74.83076923 113.4076002 81.75291375 119.0046851
C 87.83962704 124.0687142 95.47785548 126.4674649 102.5193473 129.1327434
C 108.4867133 131.3982301 113.1412587 133.263925 118.9892774 131.7980219
C 118.9892774 131.7980219 118.9892774 131.7980219 119.1086247 131.7980219
C 119.3473193 131.7980219 119.4666667 131.6647579 119.7053613 131.6647579
C 120.3020979 131.531494 106.3384615 128.1998959 104.9062937 119.5377408
C 108.367366 121.1369079 111.9477855 122.3362832 115.4088578 123.1358667
C 123.2857809 124.7350338 131.6400932 123.6689224 139.5170163 123.5356585
C 147.0358974 123.4023946 155.5095571 122.4695471 162.551049 119.2712129
C 162.7897436 119.137949 162.7897436 118.7381572 162.4317016 118.7381572
C 159.9254079 119.0046851 130.5659674 121.4034357 119.586014 117.9385737
C 118.0344988 117.405518 112.7832168 115.4065591 111.1123543 115.0067673
C 114.9314685 115.0067673 122.4503497 116.6059344 126.2694639 115.9396148
C 130.44662 115.1400312 135.8172494 113.807392 140.1137529 113.807392
C 144.2909091 113.807392 147.8713287 111.2753774 151.9291375 110.3425299
C 162.3123543 108.0770432 173.1729604 105.0119729 183.7948718 104.7454451
C 193.8200466 104.4789172 201.5776224 112.074961 208.4997669 119.137949
C 215.1832168 125.5346174 221.627972 132.0645497 226.0438228 140.1936491
C 231.2951049 149.6553878 233.204662 160.7162936 235.4722611 171.3774076
C 235.830303 172.9765747 236.188345 174.5757418 236.5463869 176.1749089
C 234.9948718 175.7751171 233.3240093 175.5085893 231.7724942 175.1087975
M 225.5664336 220.5517959
C 224.2536131 225.8823529 222.3440559 232.5455492 220.0764569 237.6095783
C 216.6153846 245.0723581 211.0060606 249.0702759 202.8904429 250.669443
C 200.8615385 251.0692348 198.4745921 251.3357626 195.7296037 251.7355544
C 190.3589744 252.401874 184.8689977 252.6684019 179.379021 252.401874
C 175.5599068 252.2686101 171.7407925 251.0692348 168.3990676 249.3368037
C 165.0573427 247.4711088 162.0736597 244.8058303 159.8060606 241.4742322
C 159.8060606 241.4742322 159.8060606 241.4742322 159.8060606 241.4742322
C 157.2997669 237.7428423 155.2708625 233.6116606 153.7193473 229.2139511
C 152.6452214 226.0156169 151.4517483 222.8172827 150.3776224 219.4856845
C 149.7808858 217.3534617 149.1841492 215.2212389 148.5874126 213.0890161
C 147.990676 208.4247788 147.1552448 203.6272775 148.2293706 199.3628319
C 148.5874126 198.0301926 149.0648019 196.6975534 149.7808858 195.498178
C 151.5710956 192.2998438 154.1967366 189.6345653 157.2997669 187.9021343
C 157.2997669 187.9021343 157.2997669 187.9021343 157.4191142 187.9021343
C 161.7156177 185.6366476 166.2508159 184.1707444 170.9053613 183.5044248
C 181.4079254 181.9052577 192.1491841 181.5054659 202.7710956 182.4383134
C 205.158042 182.7048412 207.6643357 182.8381052 210.1706294 183.104633
C 214.1090909 183.5044248 218.8829837 184.970328 222.1053613 187.6356065
C 222.1053613 187.6356065 222.2247086 187.6356065 222.2247086 187.7688704
C 225.3277389 190.300885 226.4018648 194.0322749 226.9986014 198.2967205
C 227.95338 205.6262363 227.4759907 213.6220718 225.8051282 220.8183238
M 115.2895105 213.355544
C 114.6927739 215.4877668 114.0960373 217.6199896 113.4993007 219.7522124
C 112.4251748 222.9505466 111.2317016 226.1488808 110.1575758 229.4804789
C 108.6060606 233.8781884 106.5771562 237.8761062 104.0708625 241.74076
C 104.0708625 241.74076 104.0708625 241.74076 104.0708625 241.74076
C 101.8032634 245.0723581 98.93892774 247.7376366 95.47785548 249.6033316
C 92.01678322 251.4690265 88.31701632 252.5351379 84.4979021 252.6684019
C 79.00792541 252.9349297 73.51794872 252.6684019 68.14731935 252.0020822
C 65.52167832 251.6022905 63.01538462 251.3357626 60.98648019 250.9359708
C 52.75151515 249.3368037 47.26153846 245.338886 43.8004662 237.8761062
C 41.53286713 232.945341 39.5039627 226.2821447 38.31048951 220.8183238
C 36.63962704 213.7553358 36.16223776 205.6262363 37.11701632 198.2967205
C 37.71375291 194.1655388 38.78787879 190.300885 41.89090909 187.7688704
C 41.89090909 187.7688704 42.01025641 187.7688704 42.01025641 187.6356065
C 45.11328671 185.1035919 49.88717949 183.5044248 53.94498834 183.104633
C 56.45128205 182.8381052 58.83822844 182.7048412 61.34452214 182.4383134
C 71.96643357 181.5054659 82.70769231 181.9052577 93.21025641 183.5044248
C 97.86480186 184.1707444 102.5193473 185.7699115 106.6965035 187.9021343
C 106.6965035 187.9021343 106.6965035 187.9021343 106.8158508 187.9021343
C 109.9188811 189.5013014 112.5445221 192.1665799 114.3347319 195.498178
C 115.0508159 196.6975534 115.5282051 198.0301926 115.8862471 199.3628319
C 117.0797203 203.6272775 116.1249417 208.4247788 115.5282051 213.0890161
M 256 142.0593441
C 253.7324009 140.5934409 253.2550117 138.4612181 252.6582751 137.2618428
C 251.5841492 134.8630921 252.5389277 129.799063 252.3002331 128.7329516
C 251.3454545 124.468506 250.1519814 120.4705882 248.9585082 116.3394066
C 246.8102564 108.3435711 245.1393939 100.0812077 243.2298368 91.95210828
C 241.0815851 83.0234253 237.6205128 76.0937012 232.6079254 68.6309214
C 227.8340326 61.43466944 223.6568765 53.43883394 218.5249417 46.64237376
C 207.783683 32.51639771 195.3715618 23.72097866 178.7822844 20.52264446
C 171.7407925 19.19000521 159.209324 18.65694951 152.0484848 18.65694951
C 152.4065268 18.39042166 158.4932401 16.5247267 158.8512821 16.39146278
C 162.9090909 14.12597605 168.7571096 12.39354503 171.6214452 8.262363352
C 171.6214452 8.129099427 173.2923077 5.463820927 173.2923077 5.463820927
C 173.0536131 5.064029151 156.7030303 8.662155128 151.9291375 9.195210828
C 143.9328671 9.994794378 135.9365967 10.79437793 127.9403263 10.92764185
C 120.8988345 11.06090578 102.8773893 13.99271213 95.83589744 13.3263925
C 96.43263403 12.92660073 108.1286713 9.328474753 108.8447552 8.928682978
C 112.9025641 6.529932327 117.6764569 6.130140552 121.6149184 3.864653826
C 121.9729604 3.731389901 121.9729604 3.065070276 121.6149184 2.931806351
C 121.0181818 2.665278501 120.3020979 2.532014576 119.3473193 2.398750651
C 111.9477855 -1.199375325 103.4741259 0 95.5972028 0
C 87.48158508 0 80.7981352 4.797501301 74.11468531 9.328474753
C 67.66993007 13.72618428 63.49277389 20.52264446 59.31561772 27.31910463
C 57.04801865 31.05049453 53.46759907 37.84695471 53.58694639 43.44403956
C 49.76783217 38.51327434 49.40979021 31.45028631 48.33566434 25.32014576
C 48.21631702 24.78709006 47.5002331 24.78709006 47.38088578 25.32014576
C 46.18741259 32.38313378 46.54545455 39.17959396 50.00652681 45.44299844
C 50.12587413 45.57626236 50.12587413 45.70952629 50.24522145 45.84279021
C 47.61958042 44.51015096 44.99393939 43.17751171 42.36829837 41.97813639
C 37.59440559 39.71264966 28.52400932 37.04737116 23.98881119 41.31181676
C 23.39207459 41.84487246 23.98881119 43.31077564 24.82424242 42.91098386
C 29.83682984 40.51223321 37.83310023 45.97605414 42.36829837 47.97501301
C 43.2037296 48.37480479 44.03916084 48.77459656 44.75524476 49.17438834
C 40.6974359 50.24049974 36.75897436 51.70640292 32.82051282 53.70536179
C 30.55291375 54.90473712 28.404662 56.23737637 26.37575758 57.70327954
C 23.98881119 60.63508589 20.64708625 62.90057262 18.02144522 65.29932327
C 15.63449883 67.43154607 13.24755245 69.83029672 11.0993007 72.3623113
C 10.26386946 73.82821447 8.951048951 74.89432587 8.234965035 76.36022905
C 7.160839161 78.62571577 6.206060606 81.9573139 4.415850816 83.82300885
C 4.296503497 83.82300885 4.296503497 83.95627277 4.177156177 84.0895367
C 1.79020979 90.08641333 0.596736597 96.08328995 0 102.4799584
C 0.954778555 102.8797501 6.683449883 95.01717855 9.18974359 93.01821968
C 9.309090909 92.88495575 14.32167832 89.68662155 14.44102564 89.55335763
C 13.00885781 93.55127538 7.3995338 101.0140552 7.041491841 105.0119729
C 5.848018648 116.2061426 5.967365967 126.6007288 7.757575758 137.7948985
C 9.309090909 148.0562207 13.48624709 159.5169183 18.73752914 168.0458095
C 20.16969697 170.4445601 21.36317016 173.2431026 22.43729604 176.041645
C 22.67599068 176.4414368 22.91468531 176.8412285 23.15337995 177.3742842
C 23.15337995 177.5075482 23.03403263 177.6408121 23.03403263 177.6408121
C 22.91468531 184.7038001 22.795338 191.7667881 22.67599068 198.8297762
C 22.67599068 199.2295679 22.795338 199.6293597 23.15337995 199.8958876
C 25.65967366 202.2946382 27.56923077 205.4929724 28.404662 208.9578345
C 29.5981352 214.0218636 31.86573427 221.7511713 33.41724942 226.6819365
C 34.96876457 231.6127017 38.78787879 241.2077043 41.65221445 245.338886
C 47.14219114 253.2014576 56.21258741 254.5340968 65.9990676 256
C 70.53426573 256.3997918 85.09463869 256.6663196 89.51048951 256
C 89.51048951 256 89.62983683 256 89.62983683 256
C 94.04568765 255.2004164 98.34219114 253.3347215 101.9226107 250.5361791
C 101.9226107 250.5361791 101.9226107 250.5361791 101.9226107 250.5361791
C 105.383683 247.8709006 108.2480186 244.4060385 110.2769231 240.2748568
C 112.0671329 236.6767309 113.8573427 233.0786049 115.6475524 229.4804789
C 117.7958042 224.2831858 120.0634033 217.8865174 122.3310023 212.6892244
C 123.4051282 210.5570016 125.9114219 208.024987 128.0596737 207.2254034
C 130.2079254 206.292556 132.3561772 206.4258199 134.5044289 207.0921395
C 134.5044289 207.0921395 134.5044289 207.0921395 134.6237762 207.0921395
C 136.772028 207.8917231 139.397669 210.4237376 140.3524476 212.5559604
C 142.5006993 217.7532535 144.8876457 224.016658 147.0358974 229.347215
C 148.8261072 232.945341 150.616317 236.5434669 152.4065268 240.1415929
C 154.4354312 244.1395107 157.2997669 247.7376366 160.7608392 250.4029151
C 160.7608392 250.4029151 160.7608392 250.4029151 160.8801865 250.4029151
C 164.5799534 253.2014576 168.7571096 255.0671525 173.1729604 255.8667361
C 173.1729604 255.8667361 173.2923077 255.8667361 173.2923077 255.8667361
C 177.8275058 256.6663196 192.2685315 256.2665279 196.8037296 255.8667361
C 206.5902098 254.4008329 215.6606061 253.0681936 221.1505828 245.2056221
C 224.0149184 241.0744404 227.95338 231.4794378 229.3855478 226.5486726
C 230.9370629 221.6179073 233.204662 213.7553358 234.3981352 208.8245705
C 235.2335664 205.3597085 237.1431235 202.1613743 239.6494172 199.7626236
C 239.8881119 199.4960958 240.1268065 199.096304 240.1268065 198.6965122
C 240.0074592 192.2998438 239.8881119 186.0364394 239.7687646 179.639771
C 239.7687646 179.639771 239.7687646 179.506507 239.8881119 179.506507
C 243.5878788 169.6449766 245.6167832 159.6501822 246.9296037 148.9890682
C 247.048951 147.6564289 244.781352 133.263925 244.0652681 132.7308693
C 245.8554779 134.1967725 251.7034965 141.7928162 253.7324009 141.9260802
C 254.3291375 141.9260802 256.1193473 142.192608 255.641958 141.9260802"/>
</svg>